<svg xmlns="http://www.w3.org/2000/svg" viewBox="0 0 1600 900" role="img" aria-label="RaceControl hero fallback visual">
  <defs>
    <linearGradient id="fallbackBg" x1="0" y1="0" x2="1" y2="1">
      <stop offset="0%" stop-color="#151923"/>
      <stop offset="100%" stop-color="#0b0e14"/>
    </linearGradient>
  </defs>
  <rect width="1600" height="900" fill="url(#fallbackBg)"/>
  <g opacity="0.22" stroke="#94a3b8" stroke-width="2" fill="none">
    <rect x="120" y="120" width="1360" height="660" rx="28"/>
    <path d="M180 620H1420"/>
    <path d="M420 180L620 180"/>
    <path d="M980 180L1180 180"/>
  </g>
  <g transform="translate(320 260)">
    <rect x="110" y="220" width="740" height="132" rx="66" fill="#1f2937"/>
    <rect x="390" y="188" width="150" height="68" rx="24" fill="#0f172a"/>
    <circle cx="220" cy="372" r="58" fill="#020617" stroke="#94a3b8" stroke-width="8"/>
    <circle cx="760" cy="372" r="58" fill="#020617" stroke="#94a3b8" stroke-width="8"/>
  </g>
  <g transform="translate(1210 324)">
    <circle cx="0" cy="0" r="90" fill="#111827" stroke="#94a3b8" stroke-width="7"/>
    <path d="M-52 -4c18-40 82-50 116-12 10 12 15 24 15 38 0 23-15 44-43 63h-82c-16-16-24-33-24-53 0-13 5-25 18-36z" fill="#64748b"/>
    <rect x="-16" y="-9" width="60" height="28" rx="12" fill="#e2e8f0"/>
  </g>
  <text x="120" y="790" fill="#cbd5e1" font-size="40" font-family="Inter, system-ui, sans-serif" letter-spacing="3">RACECONTROL HERO FALLBACK · NO PORTRAITS</text>
</svg>
